<svg xmlns="http://www.w3.org/2000/svg" version="1.1" xmlns:xlink="http://www.w3.org/1999/xlink" xmlns:svgjs="http://svgjs.com/svgjs" width="2560" height="1440" preserveAspectRatio="none" viewBox="0 0 2560 1440"><g mask="url(&quot;#SvgjsMask1392&quot;)" fill="none"><path d="M1333 1213L1332 2016" stroke-width="10" stroke="url(#SvgjsLinearGradient1393)" stroke-linecap="round" class="Down"></path><path d="M2087 1263L2086 2002" stroke-width="8" stroke="url(#SvgjsLinearGradient1394)" stroke-linecap="round" class="Up"></path><path d="M224 1432L223 665" stroke-width="8" stroke="url(#SvgjsLinearGradient1395)" stroke-linecap="round" class="Down"></path><path d="M31 813L30 319" stroke-width="6" stroke="url(#SvgjsLinearGradient1393)" stroke-linecap="round" class="Down"></path><path d="M305 174L304 -517" stroke-width="8" stroke="url(#SvgjsLinearGradient1396)" stroke-linecap="round" class="Up"></path><path d="M1918 507L1917 1375" stroke-width="8" stroke="url(#SvgjsLinearGradient1397)" stroke-linecap="round" class="Down"></path><path d="M1722 416L1721 -126" stroke-width="8" stroke="url(#SvgjsLinearGradient1398)" stroke-linecap="round" class="Up"></path><path d="M1303 330L1302 -280" stroke-width="6" stroke="url(#SvgjsLinearGradient1398)" stroke-linecap="round" class="Up"></path><path d="M1060 1033L1059 187" stroke-width="10" stroke="url(#SvgjsLinearGradient1399)" stroke-linecap="round" class="Down"></path><path d="M2189 1175L2188 1955" stroke-width="8" stroke="url(#SvgjsLinearGradient1393)" stroke-linecap="round" class="Down"></path><path d="M986 1407L985 2121" stroke-width="10" stroke="url(#SvgjsLinearGradient1400)" stroke-linecap="round" class="Up"></path><path d="M1292 470L1291 -454" stroke-width="6" stroke="url(#SvgjsLinearGradient1395)" stroke-linecap="round" class="Down"></path><path d="M776 891L775 75" stroke-width="8" stroke="url(#SvgjsLinearGradient1395)" stroke-linecap="round" class="Down"></path><path d="M1643 253L1642 670" stroke-width="8" stroke="url(#SvgjsLinearGradient1394)" stroke-linecap="round" class="Up"></path><path d="M2302 626L2301 1045" stroke-width="10" stroke="url(#SvgjsLinearGradient1393)" stroke-linecap="round" class="Down"></path><path d="M1988 215L1987 775" stroke-width="8" stroke="url(#SvgjsLinearGradient1400)" stroke-linecap="round" class="Up"></path><path d="M1132 461L1131 1332" stroke-width="8" stroke="url(#SvgjsLinearGradient1394)" stroke-linecap="round" class="Up"></path><path d="M2358 1347L2357 1819" stroke-width="6" stroke="url(#SvgjsLinearGradient1397)" stroke-linecap="round" class="Down"></path><path d="M225 1297L224 881" stroke-width="10" stroke="url(#SvgjsLinearGradient1395)" stroke-linecap="round" class="Down"></path><path d="M1529 1068L1528 1880" stroke-width="6" stroke="url(#SvgjsLinearGradient1393)" stroke-linecap="round" class="Down"></path><path d="M1538 220L1537 801" stroke-width="8" stroke="url(#SvgjsLinearGradient1396)" stroke-linecap="round" class="Up"></path><path d="M341 761L340 267" stroke-width="10" stroke="url(#SvgjsLinearGradient1399)" stroke-linecap="round" class="Down"></path><path d="M1439 1284L1438 1847" stroke-width="10" stroke="url(#SvgjsLinearGradient1400)" stroke-linecap="round" class="Up"></path><path d="M95 853L94 1388" stroke-width="8" stroke="url(#SvgjsLinearGradient1398)" stroke-linecap="round" class="Up"></path><path d="M1637 241L1636 -605" stroke-width="6" stroke="url(#SvgjsLinearGradient1393)" stroke-linecap="round" class="Down"></path><path d="M674 505L673 125" stroke-width="6" stroke="url(#SvgjsLinearGradient1399)" stroke-linecap="round" class="Down"></path><path d="M183 672L182 1711" stroke-width="6" stroke="url(#SvgjsLinearGradient1396)" stroke-linecap="round" class="Up"></path><path d="M331 1435L330 359" stroke-width="8" stroke="url(#SvgjsLinearGradient1398)" stroke-linecap="round" class="Up"></path><path d="M905 484L904 981" stroke-width="8" stroke="url(#SvgjsLinearGradient1393)" stroke-linecap="round" class="Down"></path><path d="M861 644L860 1441" stroke-width="8" stroke="url(#SvgjsLinearGradient1397)" stroke-linecap="round" class="Down"></path><path d="M2329 567L2328 111" stroke-width="8" stroke="url(#SvgjsLinearGradient1396)" stroke-linecap="round" class="Up"></path><path d="M1095 578L1094 -364" stroke-width="6" stroke="url(#SvgjsLinearGradient1399)" stroke-linecap="round" class="Down"></path><path d="M2386 1298L2385 2222" stroke-width="8" stroke="url(#SvgjsLinearGradient1400)" stroke-linecap="round" class="Up"></path><path d="M86 114L85 497" stroke-width="10" stroke="url(#SvgjsLinearGradient1400)" stroke-linecap="round" class="Up"></path><path d="M1970 287L1969 -230" stroke-width="8" stroke="url(#SvgjsLinearGradient1394)" stroke-linecap="round" class="Up"></path><path d="M341 427L340 1481" stroke-width="6" stroke="url(#SvgjsLinearGradient1398)" stroke-linecap="round" class="Up"></path><path d="M1623 1053L1622 2112" stroke-width="6" stroke="url(#SvgjsLinearGradient1400)" stroke-linecap="round" class="Up"></path><path d="M2164 514L2163 1072" stroke-width="10" stroke="url(#SvgjsLinearGradient1400)" stroke-linecap="round" class="Up"></path><path d="M2001 1397L2000 2295" stroke-width="8" stroke="url(#SvgjsLinearGradient1394)" stroke-linecap="round" class="Up"></path><path d="M60 13L59 767" stroke-width="10" stroke="url(#SvgjsLinearGradient1399)" stroke-linecap="round" class="Down"></path><path d="M993 1122L992 411" stroke-width="8" stroke="url(#SvgjsLinearGradient1399)" stroke-linecap="round" class="Down"></path><path d="M300 142L299 -596" stroke-width="10" stroke="url(#SvgjsLinearGradient1393)" stroke-linecap="round" class="Down"></path><path d="M703 229L702 1033" stroke-width="8" stroke="url(#SvgjsLinearGradient1399)" stroke-linecap="round" class="Down"></path><path d="M2118 523L2117 73" stroke-width="6" stroke="url(#SvgjsLinearGradient1396)" stroke-linecap="round" class="Up"></path><path d="M1324 1095L1323 2127" stroke-width="10" stroke="url(#SvgjsLinearGradient1394)" stroke-linecap="round" class="Up"></path><path d="M2025 549L2024 1584" stroke-width="6" stroke="url(#SvgjsLinearGradient1393)" stroke-linecap="round" class="Down"></path><path d="M1010 313L1009 1037" stroke-width="8" stroke="url(#SvgjsLinearGradient1393)" stroke-linecap="round" class="Down"></path><path d="M249 1051L248 130" stroke-width="10" stroke="url(#SvgjsLinearGradient1398)" stroke-linecap="round" class="Up"></path><path d="M1783 368L1782 1135" stroke-width="8" stroke="url(#SvgjsLinearGradient1398)" stroke-linecap="round" class="Up"></path><path d="M924 1422L923 2436" stroke-width="10" stroke="url(#SvgjsLinearGradient1393)" stroke-linecap="round" class="Down"></path><path d="M818 292L817 -81" stroke-width="10" stroke="url(#SvgjsLinearGradient1394)" stroke-linecap="round" class="Up"></path><path d="M2428 320L2427 1372" stroke-width="8" stroke="url(#SvgjsLinearGradient1398)" stroke-linecap="round" class="Up"></path><path d="M1072 210L1071 887" stroke-width="6" stroke="url(#SvgjsLinearGradient1397)" stroke-linecap="round" class="Down"></path><path d="M67 823L66 1380" stroke-width="10" stroke="url(#SvgjsLinearGradient1394)" stroke-linecap="round" class="Up"></path><path d="M1974 299L1973 1320" stroke-width="8" stroke="url(#SvgjsLinearGradient1393)" stroke-linecap="round" class="Down"></path><path d="M1025 369L1024 -611" stroke-width="10" stroke="url(#SvgjsLinearGradient1400)" stroke-linecap="round" class="Up"></path><path d="M1336 57L1335 -903" stroke-width="10" stroke="url(#SvgjsLinearGradient1397)" stroke-linecap="round" class="Down"></path><path d="M1449 497L1448 957" stroke-width="6" stroke="url(#SvgjsLinearGradient1397)" stroke-linecap="round" class="Down"></path><path d="M2348 89L2347 507" stroke-width="10" stroke="url(#SvgjsLinearGradient1393)" stroke-linecap="round" class="Down"></path><path d="M1470 567L1469 25" stroke-width="6" stroke="url(#SvgjsLinearGradient1394)" stroke-linecap="round" class="Up"></path><path d="M1751 1188L1750 262" stroke-width="8" stroke="url(#SvgjsLinearGradient1395)" stroke-linecap="round" class="Down"></path><path d="M1422 459L1421 -479" stroke-width="10" stroke="url(#SvgjsLinearGradient1398)" stroke-linecap="round" class="Up"></path><path d="M1312 315L1311 1305" stroke-width="10" stroke="url(#SvgjsLinearGradient1400)" stroke-linecap="round" class="Up"></path><path d="M1664 1069L1663 1640" stroke-width="8" stroke="url(#SvgjsLinearGradient1394)" stroke-linecap="round" class="Up"></path></g><defs><mask id="SvgjsMask1392"><rect width="2560" height="1440" fill="#ffffff"></rect></mask><linearGradient x1="0%" y1="0%" x2="0%" y2="100%" id="SvgjsLinearGradient1393"><stop stop-color="rgba(154, 153, 150, 0)" offset="0"></stop><stop stop-color="rgba(154, 153, 150, 1)" offset="1"></stop></linearGradient><linearGradient x1="0%" y1="100%" x2="0%" y2="0%" id="SvgjsLinearGradient1394"><stop stop-color="rgba(244, 213, 0, 0)" offset="0"></stop><stop stop-color="rgba(244, 213, 0, 1)" offset="1"></stop></linearGradient><linearGradient x1="0%" y1="0%" x2="0%" y2="100%" id="SvgjsLinearGradient1395"><stop stop-color="rgba(244, 178, 0, 0)" offset="0"></stop><stop stop-color="rgba(244, 178, 0, 1)" offset="1"></stop></linearGradient><linearGradient x1="0%" y1="100%" x2="0%" y2="0%" id="SvgjsLinearGradient1396"><stop stop-color="rgba(22, 21, 21, 0)" offset="0"></stop><stop stop-color="rgba(22, 21, 21, 1)" offset="1"></stop></linearGradient><linearGradient x1="0%" y1="0%" x2="0%" y2="100%" id="SvgjsLinearGradient1397"><stop stop-color="rgba(244, 213, 0, 0)" offset="0"></stop><stop stop-color="rgba(244, 213, 0, 1)" offset="1"></stop></linearGradient><linearGradient x1="0%" y1="100%" x2="0%" y2="0%" id="SvgjsLinearGradient1398"><stop stop-color="rgba(154, 153, 150, 0)" offset="0"></stop><stop stop-color="rgba(154, 153, 150, 1)" offset="1"></stop></linearGradient><linearGradient x1="0%" y1="0%" x2="0%" y2="100%" id="SvgjsLinearGradient1399"><stop stop-color="rgba(22, 21, 21, 0)" offset="0"></stop><stop stop-color="rgba(22, 21, 21, 1)" offset="1"></stop></linearGradient><linearGradient x1="0%" y1="100%" x2="0%" y2="0%" id="SvgjsLinearGradient1400"><stop stop-color="rgba(244, 178, 0, 0)" offset="0"></stop><stop stop-color="rgba(244, 178, 0, 1)" offset="1"></stop></linearGradient></defs></svg>